<svg width="35" height="35" viewBox="0 0 35 35" fill="none" xmlns="http://www.w3.org/2000/svg">
<circle cx="17.5" cy="17.5" r="17.5" fill="#F4C30A"/>
<path d="M12.6719 9.78125V24H10.7871V9.78125H12.6719ZM15.9336 16.2949V17.7793H12.5547V16.2949H15.9336ZM26.1387 16.4414V17.3398C26.1387 18.4076 26.0052 19.3646 25.7383 20.2109C25.4714 21.0573 25.0872 21.7767 24.5859 22.3691C24.0846 22.9616 23.4824 23.4141 22.7793 23.7266C22.0827 24.0391 21.3014 24.1953 20.4355 24.1953C19.5957 24.1953 18.8242 24.0391 18.1211 23.7266C17.4245 23.4141 16.819 22.9616 16.3047 22.3691C15.7969 21.7767 15.403 21.0573 15.123 20.2109C14.8431 19.3646 14.7031 18.4076 14.7031 17.3398V16.4414C14.7031 15.3737 14.8398 14.4199 15.1133 13.5801C15.3932 12.7337 15.7871 12.0143 16.2949 11.4219C16.8027 10.8229 17.4049 10.3672 18.1016 10.0547C18.8047 9.74219 19.5762 9.58594 20.416 9.58594C21.2819 9.58594 22.0632 9.74219 22.7598 10.0547C23.4629 10.3672 24.0651 10.8229 24.5664 11.4219C25.0742 12.0143 25.4616 12.7337 25.7285 13.5801C26.002 14.4199 26.1387 15.3737 26.1387 16.4414ZM24.2734 17.3398V16.4219C24.2734 15.5755 24.1855 14.8268 24.0098 14.1758C23.8405 13.5247 23.5898 12.9779 23.2578 12.5352C22.9258 12.0924 22.5189 11.7572 22.0371 11.5293C21.5618 11.3014 21.0215 11.1875 20.416 11.1875C19.8301 11.1875 19.2995 11.3014 18.8242 11.5293C18.3555 11.7572 17.9518 12.0924 17.6133 12.5352C17.2812 12.9779 17.0241 13.5247 16.8418 14.1758C16.6595 14.8268 16.5684 15.5755 16.5684 16.4219V17.3398C16.5684 18.1927 16.6595 18.9479 16.8418 19.6055C17.0241 20.2565 17.2845 20.8066 17.623 21.2559C17.9681 21.6986 18.375 22.0339 18.8438 22.2617C19.319 22.4896 19.8496 22.6035 20.4355 22.6035C21.0475 22.6035 21.5911 22.4896 22.0664 22.2617C22.5417 22.0339 22.9421 21.6986 23.2676 21.2559C23.5996 20.8066 23.8503 20.2565 24.0195 19.6055C24.1888 18.9479 24.2734 18.1927 24.2734 17.3398Z" fill="white"/>
</svg>
