<svg width="35" height="35" viewBox="0 0 35 35" fill="none" xmlns="http://www.w3.org/2000/svg">
<circle cx="17.5" cy="17.5" r="17.5" fill="#EC4E4B"/>
<path d="M17.8945 18.4238H14.0957V16.8906H17.8945C18.6302 16.8906 19.2259 16.7734 19.6816 16.5391C20.1374 16.3047 20.4694 15.9792 20.6777 15.5625C20.8926 15.1458 21 14.6706 21 14.1367C21 13.6484 20.8926 13.1895 20.6777 12.7598C20.4694 12.3301 20.1374 11.985 19.6816 11.7246C19.2259 11.4577 18.6302 11.3242 17.8945 11.3242H14.5352V24H12.6504V9.78125H17.8945C18.9688 9.78125 19.877 9.9668 20.6191 10.3379C21.3613 10.709 21.9245 11.2233 22.3086 11.8809C22.6927 12.5319 22.8848 13.2773 22.8848 14.1172C22.8848 15.0286 22.6927 15.8066 22.3086 16.4512C21.9245 17.0957 21.3613 17.5872 20.6191 17.9258C19.877 18.2578 18.9688 18.4238 17.8945 18.4238Z" fill="white"/>
</svg>
