<svg width="35" height="35" viewBox="0 0 35 35" fill="none" xmlns="http://www.w3.org/2000/svg">
<circle cx="17.5" cy="17.5" r="17.5" fill="#A0196A"/>
<path d="M20.2344 19.4785H22.1094C22.0117 20.377 21.7546 21.181 21.3379 21.8906C20.9212 22.6003 20.332 23.1634 19.5703 23.5801C18.8086 23.9902 17.8581 24.1953 16.7188 24.1953C15.8854 24.1953 15.127 24.0391 14.4434 23.7266C13.7663 23.4141 13.1836 22.9714 12.6953 22.3984C12.207 21.819 11.8294 21.1257 11.5625 20.3184C11.3021 19.5046 11.1719 18.5996 11.1719 17.6035V16.1875C11.1719 15.1914 11.3021 14.2897 11.5625 13.4824C11.8294 12.6686 12.2103 11.972 12.7051 11.3926C13.2064 10.8132 13.8086 10.3672 14.5117 10.0547C15.2148 9.74219 16.0059 9.58594 16.8848 9.58594C17.959 9.58594 18.8672 9.78776 19.6094 10.1914C20.3516 10.5951 20.9277 11.1549 21.3379 11.8711C21.7546 12.5807 22.0117 13.4043 22.1094 14.3418H20.2344C20.1432 13.6777 19.974 13.1081 19.7266 12.6328C19.4792 12.151 19.1276 11.7799 18.6719 11.5195C18.2161 11.2591 17.6204 11.1289 16.8848 11.1289C16.2533 11.1289 15.6966 11.2493 15.2148 11.4902C14.7396 11.7311 14.3392 12.0729 14.0137 12.5156C13.6947 12.9583 13.4538 13.4889 13.291 14.1074C13.1283 14.7259 13.0469 15.4128 13.0469 16.168V17.6035C13.0469 18.3001 13.1185 18.9544 13.2617 19.5664C13.4115 20.1784 13.6361 20.7155 13.9355 21.1777C14.235 21.64 14.6159 22.0046 15.0781 22.2715C15.5404 22.5319 16.0872 22.6621 16.7188 22.6621C17.5195 22.6621 18.1576 22.5352 18.6328 22.2812C19.1081 22.0273 19.4661 21.6628 19.707 21.1875C19.9544 20.7122 20.1302 20.1426 20.2344 19.4785Z" fill="white"/>
</svg>
