<svg width="262.000000" height="92.269547" viewBox="0 0 262 92.2695" fill="none" xmlns="http://www.w3.org/2000/svg" xmlns:xlink="http://www.w3.org/1999/xlink">
	<desc>
			Created with Pixso.
	</desc>
	<defs>
		<clipPath id="clip0_16">
			<rect id="logo finished 1" width="66.649002" height="92.269547" fill="white" fill-opacity="0"/>
		</clipPath>
	</defs>
	<path id="РечиСтарт" d="M173.26 50.76Q174.97 48.88 175.33 45.78L172.31 45.78Q171.87 48.59 170.54 49.72Q169.2 50.85 166.7 50.85Q165.19 50.85 164.04 50.21Q163.08 49.66 162.37 48.67Q160.83 46.48 160.83 42.78L160.83 40.57Q160.83 36.65 162.46 34.53Q163.13 33.65 164.01 33.14Q165.27 32.4 166.97 32.4Q169.19 32.4 170.48 33.5Q170.55 33.56 170.62 33.62Q171.92 34.84 172.31 37.56L175.33 37.56Q175.02 34.51 173.39 32.59Q173.1 32.26 172.78 31.96Q172.44 31.64 172.07 31.38Q170.03 29.93 166.97 29.93Q164.62 29.93 162.76 30.88Q162.45 31.04 162.16 31.22Q161.65 31.54 161.19 31.92Q159.8 33.1 158.94 34.92Q157.81 37.32 157.81 40.5L157.81 42.68Q157.81 47.4 160.11 50.26Q160.18 50.34 160.24 50.42Q161.24 51.6 162.5 52.3Q164.32 53.31 166.7 53.31Q170.09 53.31 172.25 51.68Q172.46 51.52 172.66 51.35Q172.98 51.07 173.26 50.76ZM88.8 53L88.8 44.09L94.16 44.09Q98.01 44.09 100.09 42.3Q100.57 41.88 100.95 41.37Q102.16 39.73 102.16 37.2Q102.16 35.17 101.27 33.66Q100.79 32.83 100.04 32.15Q99.97 32.09 99.89 32.03Q97.8 30.25 94.19 30.25L85.8 30.25L85.8 53L88.8 53ZM94.19 41.64L88.8 41.64L88.8 32.71L94.36 32.71Q96.39 32.76 97.63 33.77Q97.76 33.87 97.87 33.98Q98.24 34.32 98.5 34.73Q99.16 35.77 99.16 37.23Q99.16 38.97 98.31 40.04Q98.12 40.29 97.87 40.5Q96.59 41.64 94.19 41.64ZM108.4 52.34Q110.1 53.31 112.34 53.31Q114.87 53.31 116.65 52.15Q117.86 51.36 118.72 50.04L116.95 48.67Q116.25 49.57 115.35 50.17Q115.22 50.25 115.09 50.32Q114.03 50.95 112.5 50.95Q111.3 50.95 110.34 50.47Q109.57 50.09 108.94 49.41Q108.74 49.19 108.57 48.95Q107.54 47.51 107.48 45.37L118.94 45.37L118.94 44.17Q118.94 40.12 117.11 37.95Q116.57 37.31 115.9 36.85Q114.31 35.78 111.98 35.78Q111.1 35.78 110.28 35.99Q109.21 36.27 108.24 36.89Q107.77 37.2 107.36 37.57Q106.25 38.55 105.55 39.99Q104.59 41.96 104.59 44.48L104.59 45.01Q104.59 48.14 106.07 50.22Q106.38 50.66 106.75 51.05Q107.5 51.83 108.4 52.34ZM204.12 51.21Q204.28 52.5 204.53 53L207.56 53L207.56 52.75Q206.97 51.37 206.97 49.04L206.97 41.26Q206.92 39.4 206.04 38.12Q205.7 37.64 205.25 37.24Q205.23 37.22 205.22 37.21Q203.56 35.78 200.67 35.78Q198.84 35.78 197.31 36.45Q197.3 36.46 197.29 36.46Q195.76 37.15 194.87 38.31Q194.86 38.32 194.85 38.33Q194.07 39.35 193.97 40.44Q193.95 40.61 193.95 40.78L196.86 40.78Q196.86 40.44 196.95 40.14Q197.18 39.43 197.91 38.89Q198.01 38.81 198.12 38.74Q199.11 38.1 200.5 38.1Q202.23 38.1 203.14 38.97Q203.15 38.99 203.17 39Q203.37 39.2 203.53 39.43Q204.08 40.24 204.08 41.42L204.08 42.75L201.27 42.75Q197.62 42.75 195.62 44.21Q194.76 44.83 194.27 45.66Q193.61 46.79 193.61 48.31Q193.61 49.45 194.05 50.38Q194.45 51.22 195.21 51.89Q195.53 52.18 195.89 52.4Q197.31 53.31 199.31 53.31Q200.54 53.31 201.61 52.91Q202.99 52.39 204.12 51.21ZM224.02 50.95Q225.78 48.59 225.78 44.73L225.78 44.46Q225.78 40.37 224.01 38.07Q223.23 37.07 222.21 36.5Q220.9 35.78 219.19 35.78Q217.16 35.78 215.7 36.69Q214.9 37.19 214.28 37.96L214.14 36.09L211.5 36.09L211.5 59.5L214.39 59.5L214.39 51.35Q214.87 51.88 215.44 52.27Q216.99 53.31 219.23 53.31Q220.83 53.31 222.07 52.65Q223.18 52.06 224.02 50.95ZM132.14 53L135.05 53L135.05 36.09L132.14 36.09L132.14 44.5Q131.62 44.63 131.08 44.73Q129.68 45 128.23 45Q126.56 45 125.66 44.16Q124.63 43.22 124.59 41.21L124.59 36.07L121.7 36.07L121.7 41.12Q121.73 43.8 123.06 45.39Q123.22 45.57 123.4 45.75Q123.44 45.79 123.49 45.83Q125.15 47.37 128.23 47.37Q129.68 47.37 131.08 47.11Q131.62 47.01 132.14 46.87L132.14 53ZM153.5 36.09L150.61 36.09L142.81 48.43L142.81 36.09L139.92 36.09L139.92 53L142.81 53L150.61 40.67L150.61 53L153.5 53L153.5 36.09ZM185.86 38.43L191.53 38.43L191.53 36.09L177.41 36.09L177.41 38.43L182.97 38.43L182.97 53L185.86 53L185.86 38.43ZM235.09 38.43L240.77 38.43L240.77 36.09L226.64 36.09L226.64 38.43L232.2 38.43L232.2 53L235.09 53L235.09 38.43ZM110.35 38.48Q111.1 38.15 111.98 38.15Q113.2 38.15 114.08 38.69Q114.51 38.96 114.86 39.36Q115.92 40.57 116.05 42.78L116.05 43L107.58 43Q107.86 40.7 109.05 39.42Q109.63 38.8 110.35 38.48ZM221.67 39.89Q222.89 41.54 222.89 44.4Q222.89 47.65 221.66 49.3Q221.07 50.1 220.27 50.51Q219.43 50.95 218.36 50.95Q217 50.95 216 50.35Q215.03 49.77 214.39 48.64L214.39 40.56Q215.07 39.35 216.1 38.77Q217.06 38.23 218.33 38.23Q219.48 38.23 220.36 38.71Q221.11 39.12 221.67 39.89ZM200.73 50.69Q200.24 50.79 199.73 50.79Q198.51 50.79 197.67 50.23Q197.53 50.13 197.41 50.03Q197.12 49.79 196.93 49.49Q196.5 48.84 196.5 47.9Q196.5 47.11 196.85 46.52Q197.86 44.79 201.81 44.79L204.08 44.79L204.08 48.26Q203.98 48.45 203.87 48.63Q203.32 49.51 202.31 50.09Q201.55 50.53 200.73 50.69Z" fill="#FFFFFF" fill-opacity="1.000000" fill-rule="evenodd"/>
	<rect id="logo finished 1" width="66.649002" height="92.269547" fill="#FFFFFF" fill-opacity="0"/>
	<g clip-path="url(#clip0_16)">
		<path id="Vector" d="M39.09 59.81C38.43 59.77 38.23 59.65 37.63 59.63C34.88 59.45 33.45 60.12 31.48 61.49C30.84 61.94 30.8 62.7 30.36 63.09C30.35 61.63 29.52 58.68 29.08 57.41C28.41 55.47 27.37 53.7 27 52.49C26.5 50.85 25.94 48.49 25.89 46.63C25.86 45.47 25.81 44.36 25.87 43.2C25.92 42.08 26.15 41.14 26.25 40.13C26.3 39.46 26.48 39.24 26.48 39.17C26.49 39.13 26.51 39.12 26.52 39.1C26.23 38.52 28.08 33.64 28.38 32.91C29.04 31.29 30.43 28.86 31.41 27.7C32.44 27.61 33.27 27.72 34.08 26.22C34.49 25.46 34.95 23.98 34.92 22.98C33.69 23.14 31.63 24.11 30.91 25.29C30.17 26.5 31.08 26.86 30.5 27.6C28.27 30.49 26.71 33.28 25.63 36.83C25.5 37.25 25.44 37.73 25.26 38.06L25.06 39.12C24.69 40.78 24.5 42.47 24.47 44.28C24.44 46.54 24.83 48.87 24.83 49.25C24.83 49.42 24.81 49.44 24.78 49.5C22.35 46.6 21.1 45.4 18.06 43.37C17.13 42.75 15.72 42.03 15.32 41.76C15.33 41.04 15.43 40.72 15.08 40.06C14.42 38.81 12.4 38.05 11.08 37.74C11.03 38.61 11.46 40.07 11.78 40.76C12.17 41.6 12.84 42.44 14.08 42.43C15.06 42.42 14.88 42.28 15.65 42.75C19.33 44.96 22.32 47.93 24.59 51.5L26.05 53.94L24.18 52.71C23.56 52.33 22.82 51.98 22.11 51.68C19.87 50.72 16.52 50.3 14 50.79C12.31 51.11 12.41 50.52 11.39 50.93C10.29 51.38 8.75 53.03 8.38 54.1C9.56 54.26 11.09 54.39 12.19 53.98C13.4 53.54 13.77 53.02 13.99 51.7C19.44 51.51 24.91 53.48 27.73 57.81C28.02 58.26 28.27 59.35 28.42 59.93L29.1 63.44C29.17 63.88 29.12 64.33 29.17 64.8C29.26 65.6 29.17 67.99 28.91 68.63C28.75 68.99 28.6 69.26 28.42 69.6C27.4 71.47 25.96 72.79 24.12 73.78C23.32 74.22 22.87 74.21 22.03 74.5C23.97 74.67 27.82 73.65 29.24 72.12C29.78 71.54 30.05 70.94 30.35 70.05C31.13 71.37 33.69 72.28 35.74 71.47C33.78 71.41 32.75 70.82 31.91 69.61C30.63 67.77 30.51 65.31 31.87 63.24C32.42 62.4 32.47 62.39 33.35 61.89C34.82 61.03 35.94 60.93 37.93 60.98L39.36 61.24C40.79 61.39 41.71 61.68 43.28 61.39C47.42 60.63 46.35 57.4 46.37 56.28C46.39 55.56 47.05 55.62 47.39 55.14C47.84 54.5 47.31 54.06 47.13 53.6C47.41 53.41 47.88 53.03 47.94 52.58C48.04 51.88 47.5 51.9 47.49 51.15C48.5 50.22 50.28 49.13 48.72 47.2C48.15 46.49 47.7 46.15 47.19 45.54C46.69 44.92 46.32 44.26 46.33 43.2C46.33 41.97 46.77 39.51 46.84 37.33C47.01 32.1 45.87 26.23 42.3 22.8C37.44 18.12 29.23 16.65 22.45 18.36C15.97 19.99 10.95 23.58 8.26 29.75C7 32.65 6.47 37.22 7.22 40.72L8.49 40.62C8.57 40.29 8.29 38.54 8.28 37.97C8.14 31.65 10 27.23 14.99 23.24C20.02 19.22 28.37 18.02 34.55 19.91C41.46 22.04 44.72 26.5 45.34 33.63C45.51 35.6 45.56 37.36 45.39 39.38C45.15 42.15 44.16 44.29 46.4 46.68C48.56 49 48.35 48.53 46.66 50.09C45.86 50.84 46.16 51.45 46.44 52.41C45.86 52.99 43.54 53.58 45.89 54.49C45.37 55.19 44.82 55.43 45.05 56.75C45.75 60.81 42.38 60.3 39.09 59.81Z" fill="#06CAF9" fill-opacity="1.000000" fill-rule="evenodd"/>
		<path id="Vector" d="M39.36 61.24L37.93 60.98C38.35 64.88 39.15 68.55 36.89 71.59C34.88 74.3 32.24 72.11 29.35 73.3C28.96 73.45 28.68 73.64 28.36 73.86L27.48 74.57C28.16 74.53 28.98 73.84 30.49 73.85C33.8 73.87 34.7 75.76 37.92 73.04C38.1 72.88 38.26 72.82 38.44 72.65C38.61 72.49 38.69 72.34 38.88 72.1C39.46 72.59 39.65 73.46 41.37 74.26C42.63 74.84 43.85 75.06 45.37 74.94C48.42 74.69 50.91 73.97 54.06 74.28L53.49 73.92C53.28 73.84 53.08 73.78 52.88 73.71C51.46 73.25 49.87 73.15 48.38 73.15C44.97 73.13 40.24 74.71 40.21 68.29C40.21 67.3 40.38 66.93 41.37 66.12C43.37 64.5 46.97 64.54 49.45 64.13C50.32 63.98 51.28 63.74 51.96 63.32C52.37 63.07 52.59 62.94 52.9 62.61C54.7 60.69 52.94 57.77 53.99 55.54C54.25 54.97 55.44 55.05 55.15 53.54C54.98 52.67 54.19 52.28 53.16 52.11C53.63 51.93 54 51.91 54.48 51.62C55.35 51.11 55.94 49.97 55.5 48.96C55.19 48.25 54.96 48.52 54.47 48.07C54.21 46.62 55.64 46.98 56.79 46.85C59.66 46.52 59.79 44.98 58.7 42.93C58.27 42.12 56.37 39.06 55.94 38.6L54.39 36.6C53.17 34.86 54.95 33.73 54.65 30.65C54.28 26.84 52.81 22.83 51.04 20.03C50.47 19.12 49.89 18.25 49.22 17.48C48.1 16.21 46.94 14.91 45.61 13.87C45.44 13.73 45.29 13.64 45.09 13.47C41.97 10.92 37.81 9.2 33.8 8.54C28.55 7.68 23.26 8.44 18.59 10.6C17.05 11.31 15.46 12.3 14.12 13.27L13.1 14.07C12.83 14.32 12.86 14.29 12.59 14.48C12.26 14.72 12.41 14.68 12.15 14.96L8.8 18.72C8.3 19.38 6.37 22.49 6.26 23.32C6.55 23.45 7.18 23.71 7.44 23.76C7.59 23.63 8.28 22.12 8.5 21.75C8.94 21 9.26 20.47 9.72 19.79C10.15 19.17 10.62 18.52 11.09 17.98C11.39 17.64 11.49 17.47 11.83 17.17C12.67 16.43 13.38 15.54 14.32 14.83C16.15 13.45 18.09 12.14 20.39 11.3C25.81 9.33 31.11 8.79 36.84 10.65C38.58 11.22 39.8 11.85 41.29 12.6C42.44 13.16 43.62 13.98 44.57 14.81L48.18 18.4C50.17 20.67 51.68 23.9 52.51 26.78C52.92 28.21 53.43 30.68 53.27 32.19C52.97 34.99 51.53 35.31 53.8 38.07C54.07 38.4 54.24 38.61 54.53 38.99C55.64 40.45 56.1 41.13 57.06 42.82C57.36 43.36 58.09 44.43 57.93 45.1C57.13 45.89 54.77 45.2 53.76 46.12C53.27 46.57 52.98 47.16 53.09 48.07C53.22 49.12 53.39 49.23 54.27 49.5C54.17 50.76 53.02 50.71 52.02 51C49.39 51.77 48.45 52.71 51.7 53.23C52.22 53.31 53.63 53.31 53.82 53.85C53.36 54.55 53.05 53.05 52.3 56.53C51.99 58.01 52.99 60.73 51.77 61.78C50.03 63.28 46.33 63.05 44.08 63.53C41.86 64.01 41.17 64.33 39.73 65.52C39.83 64.41 39.52 62.39 39.36 61.24Z" fill="#FFFFFF" fill-opacity="1.000000" fill-rule="evenodd"/>
		<path id="Vector" d="M26.52 39.1C26.51 39.12 26.49 39.13 26.48 39.17C26.48 39.24 26.3 39.46 26.25 40.13L28.24 41.97C28.43 42.16 28.43 42.26 28.65 42.48C28.92 42.75 28.92 42.74 29.13 43L32.46 47.41C34.42 50.48 37.21 56.07 37.63 59.63C38.23 59.65 38.43 59.77 39.09 59.81C38.84 57.97 37.89 55.09 37.19 53.45L35.9 50.56C35.58 49.48 35.3 48.25 35.17 47.12C34.73 43.34 35.36 39.82 36.47 36.23C36.81 35.14 37.61 33.55 37.68 33.29C40.86 33.36 40.91 29.6 40.98 27.44C40.49 27.49 39.07 28.28 38.69 28.56C35.21 31.1 37.22 32.39 36.9 33.06C36.81 33.24 36.69 33.33 36.57 33.55L35.66 35.36C34.48 37.75 33.75 41.03 33.67 43.75C33.66 44.31 33.66 44.88 33.68 45.44L33.7 47.03C33.5 46.41 33.33 46.42 32.99 45.91C32.37 44.97 31.98 44.6 31.35 43.81L29.59 41.83C29.39 41.64 29.25 41.58 29.08 41.42C28.37 40.76 27.34 39.58 26.52 39.1Z" fill="#FFFFFF" fill-opacity="1.000000" fill-rule="evenodd"/>
		<path id="Vector" d="M25.06 39.12L25.26 38.06L24.11 37.26C23.21 36.72 22.65 36.27 21.63 35.71C20.9 35.31 21.32 35.44 20.89 34.47C20.5 33.58 19.63 33.07 18.4 32.92C16.86 32.74 15.99 33.17 14.67 33.24C14.98 33.98 16.07 34.99 16.7 35.6C17.38 36.25 18.77 36.9 19.93 36.57C20.96 36.27 20.41 35.62 22.61 37.2C23.14 37.58 24.79 38.68 25.06 39.12Z" fill="#FFFFFF" fill-opacity="1.000000" fill-rule="evenodd"/>
		<path id="Vector" d="M33.89 38.3C35.88 35.97 32.48 33.4 30.43 32.67C30.14 33.65 30.29 36.96 31.92 37.94C32.58 38.34 33.06 38.33 33.89 38.3Z" fill="#FFFFFF" fill-opacity="1.000000" fill-rule="evenodd"/>
		<path id="Vector" d="M41.28 35.53C40.01 35.8 38.64 36.18 37.63 36.92C37.33 37.14 37.2 37.12 36.96 37.44C36.29 38.38 36.09 39.84 36.63 40.26C37.22 40.72 38.49 40.54 39.41 39.92C39.73 39.7 39.77 39.54 39.98 39.22C40.73 38.13 40.94 37.01 41.28 35.53Z" fill="#FFFFFF" fill-opacity="1.000000" fill-rule="evenodd"/>
		<path id="Vector" d="M22.81 29.67C22.57 30.83 21.18 34 22.9 35.38C23.21 35.62 24.2 36.23 24.66 35.96C24.91 35.82 25.47 34.92 25.55 34.39C25.83 32.48 23.57 30.06 22.81 29.67Z" fill="#FFFFFF" fill-opacity="1.000000" fill-rule="evenodd"/>
		<path id="Vector" d="M63.44 52.59C63.44 54.83 62.17 57.44 60.17 58.44C59.95 58.55 59.4 58.78 59.25 58.89C58.39 59.48 59.44 60.27 61.39 58.74C65.14 55.79 65.11 50.06 62.23 47.33C61.01 46.17 60.8 46.91 60.87 47.21C60.99 47.69 63.44 48.79 63.44 52.59Z" fill="#FFFFFF" fill-opacity="1.000000" fill-rule="evenodd"/>
		<path id="Vector" d="M26.65 47.02L28.82 49.36C29.96 50.13 31.17 50.27 32.29 49.38C32.9 48.9 32.34 47.33 30.74 46.83C29.75 46.51 27.65 46.69 26.65 47.02Z" fill="#FFFFFF" fill-opacity="1.000000" fill-rule="evenodd"/>
		<path id="Vector" d="M26.9 30.56C27.86 29.55 28.25 28.67 27.43 27.25C27.03 26.57 25.67 25.03 25.05 24.81C24.7 25.37 23.46 30.38 26.9 30.56Z" fill="#06CAF9" fill-opacity="1.000000" fill-rule="evenodd"/>
		<path id="Vector" d="M28.46 20.12C28.1 20.41 26.42 23.54 27.71 25.26C27.9 25.53 28.61 26.23 29.13 26.01C29.49 25.86 30.09 25.2 30.24 24.82C30.86 23.25 29.36 21.02 28.46 20.12Z" fill="#06CAF9" fill-opacity="1.000000" fill-rule="evenodd"/>
		<path id="Vector" d="M14.81 48.53C15.45 49.14 18.25 50.64 19.9 49.62C20.18 49.45 20.88 48.75 20.89 48.34C20.9 47.86 19.84 46.57 17.86 46.98C16.91 47.18 15.32 47.96 14.81 48.53Z" fill="#06CAF9" fill-opacity="1.000000" fill-rule="evenodd"/>
		<path id="Vector" d="M10.23 44.92C10.56 45.41 12.55 46.22 13.35 46.36C15.18 46.67 16.35 45.45 16.34 44.73C16.34 44.39 15.34 42.99 13.36 43.39C12.43 43.57 10.84 44.43 10.23 44.92Z" fill="#06CAF9" fill-opacity="1.000000" fill-rule="evenodd"/>
		<path id="Vector" d="M6.33 48.91C7.35 49.38 8.09 50.04 9.52 50.28C11.53 50.62 13.72 48.7 11.36 47.49C9.59 46.58 6.55 48.45 6.33 48.91Z" fill="#06CAF9" fill-opacity="1.000000" fill-rule="evenodd"/>
		<path id="Vector" d="M20.58 43.51C20.99 42.68 21.74 41.7 20.53 40.14C20.16 39.65 18.6 38.23 17.95 38.08C17.63 38.75 17.65 41.16 17.94 41.86C18.4 42.99 19.04 43.49 20.58 43.51Z" fill="#06CAF9" fill-opacity="1.000000" fill-rule="evenodd"/>
		<path id="Vector" d="M18.07 27.05C18.03 28.65 17.6 31.89 20.35 32.15C20.87 32.2 20.95 32.23 21.18 31.82C22.62 29.26 18.53 27.05 18.07 27.05Z" fill="#FFFFFF" fill-opacity="1.000000" fill-rule="evenodd"/>
		<path id="Vector" d="M59.47 47.96C59.47 47.96 58.88 48.08 59.37 48.68C59.79 49.18 60.29 49.37 60.74 50.4C61.85 52.95 60.95 55.86 58.22 57.17C57.41 57.56 57.82 58.19 58.45 58.04C58.87 57.93 59.5 57.52 59.77 57.33C61.83 55.91 62.74 52.39 61.49 49.86C61.2 49.26 60.12 47.66 59.47 47.96Z" fill="#FFFFFF" fill-opacity="1.000000" fill-rule="evenodd"/>
		<path id="Vector" d="M57.69 49.52C57.4 49.94 57.4 50.03 57.83 50.38C58.73 51.1 59.22 52.14 58.83 53.35C58.74 53.66 58.48 54.1 58.37 54.25C57.78 55.07 56.92 55.1 56.7 55.42C56.43 55.8 56.8 56.13 57.19 56.08C57.94 55.97 58.6 55.31 58.94 54.98C60.92 53.03 59.28 49.27 57.69 49.52Z" fill="#FFFFFF" fill-opacity="1.000000" fill-rule="evenodd"/>
	</g>
</svg>
