<svg width="262" height="93" viewBox="0 0 262 93" fill="none" xmlns="http://www.w3.org/2000/svg">
<path d="M86.5204 54V31.6H95.0004C97.0697 31.6 98.7871 32.272 100.152 33.616C101.518 34.96 102.2 36.6347 102.2 38.64C102.2 40.6453 101.518 42.32 100.152 43.664C98.7871 45.008 97.0697 45.68 95.0004 45.68H88.9204V54H86.5204ZM88.9204 43.44H95.0004C96.4511 43.44 97.6137 43.0027 98.4884 42.128C99.3631 41.2533 99.8004 40.0907 99.8004 38.64C99.8004 37.1893 99.3631 36.0267 98.4884 35.152C97.6137 34.2773 96.4511 33.84 95.0004 33.84H88.9204V43.44ZM117.084 49.68L118.524 51.12C118.119 51.6747 117.575 52.208 116.892 52.72C115.399 53.7867 113.809 54.32 112.124 54.32C110.012 54.32 108.199 53.5413 106.684 51.984C105.191 50.4267 104.444 48.5387 104.444 46.32C104.444 44.1013 105.191 42.2133 106.684 40.656C108.177 39.0987 109.937 38.32 111.964 38.32C114.076 38.32 115.825 39.0453 117.212 40.496C118.62 41.9467 119.324 43.7813 119.324 46C119.324 46.1067 119.292 46.384 119.228 46.832L119.164 47.152L106.684 47.12C106.769 48.5067 107.335 49.712 108.38 50.736C109.447 51.7387 110.695 52.24 112.124 52.24C113.425 52.24 114.652 51.8133 115.804 50.96C116.359 50.512 116.785 50.0853 117.084 49.68ZM106.684 45.2H117.084C116.913 43.8133 116.348 42.672 115.388 41.776C114.449 40.8587 113.308 40.4 111.964 40.4C110.62 40.4 109.447 40.8693 108.444 41.808C107.441 42.7467 106.855 43.8773 106.684 45.2ZM132.922 54V47.76C132.538 47.9947 132.132 48.208 131.706 48.4C130.767 48.8267 129.732 49.04 128.602 49.04C126.852 49.04 125.423 48.496 124.314 47.408C123.226 46.2987 122.682 44.8693 122.682 43.12V38.64H124.922V43.12C124.922 44.2507 125.274 45.1787 125.978 45.904C126.703 46.608 127.631 46.96 128.762 46.96C129.807 46.96 130.82 46.7253 131.802 46.256C132.228 46.0213 132.602 45.776 132.922 45.52V38.64H135.162V54H132.922ZM140.283 54V38.64H142.523V50.16L151.803 38.64H153.723V54H151.483V42.48L142.203 54H140.283ZM177.405 48.24L179.005 49.68C178.259 50.6187 177.469 51.3973 176.637 52.016C174.547 53.552 172.243 54.32 169.725 54.32C166.525 54.32 163.805 53.2 161.565 50.96C159.325 48.72 158.205 46 158.205 42.8C158.205 39.6 159.325 36.88 161.565 34.64C163.805 32.4 166.525 31.28 169.725 31.28C172.221 31.28 174.504 32.0587 176.573 33.616C177.469 34.2987 178.227 35.0667 178.845 35.92L177.245 37.36C176.712 36.6133 176.093 35.9733 175.389 35.44C173.789 34.16 171.901 33.52 169.725 33.52C167.165 33.52 165 34.416 163.229 36.208C161.48 37.9787 160.605 40.176 160.605 42.8C160.605 45.424 161.48 47.632 163.229 49.424C165 51.1947 167.165 52.08 169.725 52.08C171.923 52.08 173.843 51.44 175.485 50.16C176.211 49.6053 176.851 48.9653 177.405 48.24ZM186.053 54V40.72H180.613V38.64H193.733V40.72H188.293V54H186.053ZM205.907 54V51.92C205.587 52.368 205.181 52.7733 204.691 53.136C203.56 53.9253 202.312 54.32 200.947 54.32C199.389 54.32 198.088 53.872 197.043 52.976C196.019 52.0587 195.507 51.0133 195.507 49.84C195.507 47.2373 197 45.6907 199.987 45.2L205.907 44.24C205.907 43.1093 205.544 42.192 204.819 41.488C204.115 40.7627 203.197 40.4 202.067 40.4C200.957 40.4 199.901 40.7733 198.899 41.52C198.429 41.9253 198.045 42.2987 197.747 42.64L196.307 41.2C196.712 40.6667 197.213 40.1867 197.811 39.76C199.112 38.8 200.531 38.32 202.067 38.32C203.816 38.32 205.267 38.8853 206.419 40.016C207.571 41.1467 208.147 42.5547 208.147 44.24V54H205.907ZM205.907 47.12V46.16L200.627 47.12C198.707 47.4613 197.747 48.368 197.747 49.84C197.747 50.5227 198.024 51.0987 198.579 51.568C199.155 52.016 199.944 52.24 200.947 52.24C202.419 52.24 203.613 51.7707 204.531 50.832C205.448 49.8933 205.907 48.656 205.907 47.12ZM213.252 60.72V38.64H215.492V40.88C215.854 40.3893 216.292 39.9627 216.804 39.6C217.956 38.7467 219.278 38.32 220.772 38.32C222.884 38.32 224.665 39.0773 226.116 40.592C227.566 42.1067 228.292 44.016 228.292 46.32C228.292 48.624 227.566 50.5333 226.116 52.048C224.665 53.5627 222.884 54.32 220.772 54.32C219.278 54.32 217.956 53.8933 216.804 53.04C216.292 52.6773 215.854 52.2507 215.492 51.76V60.72H213.252ZM220.772 52.24C222.244 52.24 223.492 51.6853 224.516 50.576C225.54 49.4667 226.052 48.048 226.052 46.32C226.052 44.592 225.54 43.1733 224.516 42.064C223.492 40.9547 222.244 40.4 220.772 40.4C219.385 40.4 218.158 40.976 217.092 42.128C216.025 43.28 215.492 44.6773 215.492 46.32C215.492 47.9627 216.025 49.36 217.092 50.512C218.158 51.664 219.385 52.24 220.772 52.24ZM235.49 54V40.72H230.05V38.64H243.17V40.72H237.73V54H235.49Z" fill="white"/>
<path fill-rule="evenodd" clip-rule="evenodd" d="M39.0934 59.8166C38.4306 59.7746 38.2396 59.6592 37.6398 59.6334C34.8855 59.4548 33.4556 60.1236 31.4828 61.4971C30.8431 61.9425 30.8076 62.7001 30.3626 63.0985C30.355 61.6327 29.5263 58.685 29.0852 57.4134C28.4126 55.4748 27.3792 53.7047 27.007 52.4939C26.5034 50.8553 25.9414 48.4962 25.8917 46.6371C25.8606 45.4764 25.8143 44.3688 25.87 43.2055C25.924 42.0804 26.1536 41.1432 26.254 40.1352C26.3037 39.4698 26.4804 39.241 26.4892 39.1772C26.4949 39.1366 26.5102 39.1263 26.5252 39.1033C26.2395 38.5276 28.084 33.6495 28.3812 32.9196C29.0424 31.2959 30.4373 28.864 31.4197 27.7062C32.4428 27.6174 33.2702 27.7238 34.0846 26.2259C34.4977 25.466 34.9516 23.9865 34.9217 22.9824C33.6946 23.1474 31.6356 24.1144 30.913 25.2945C30.1736 26.5019 31.0804 26.8607 30.5099 27.601C28.2764 30.4992 26.7193 33.2887 25.6388 36.8324C25.5099 37.2551 25.4459 37.7367 25.2619 38.0673L25.0605 39.126C24.6953 40.7843 24.5029 42.4731 24.4781 44.2888C24.4472 46.549 24.8372 48.874 24.8323 49.2587C24.8302 49.4243 24.8171 49.4421 24.7816 49.5057C22.3516 46.6059 21.105 45.4087 18.0642 43.3738C17.1362 42.7527 15.7208 42.0388 15.3207 41.7617C15.3362 41.0416 15.4335 40.7291 15.0847 40.0664C14.4282 38.8196 12.4006 38.0556 11.0808 37.74C11.0315 38.6182 11.4639 40.075 11.7846 40.7661C12.1759 41.6093 12.8437 42.4422 14.0842 42.4323C15.0661 42.4244 14.8865 42.2863 15.6579 42.7502C19.3382 44.9635 22.3295 47.9365 24.5945 51.5096L26.0517 53.9441L24.1899 52.7199C23.5639 52.3399 22.8281 51.9857 22.1117 51.68C19.8704 50.7234 16.5266 50.305 14.0062 50.7914C12.3142 51.1181 12.4122 50.5247 11.3926 50.9398C10.2963 51.3862 8.75817 53.0311 8.38297 54.1097C9.5688 54.2674 11.0969 54.3922 12.193 53.988C13.4023 53.5421 13.7758 53.0287 13.998 51.7078C19.4491 51.5121 24.9111 53.4847 27.7343 57.8158C28.0277 58.266 28.2738 59.3501 28.4244 59.9396L29.1044 63.4426C29.1793 63.8888 29.1247 64.3359 29.1745 64.8035C29.2603 65.6093 29.1789 67.9987 28.9109 68.6336C28.7598 68.9916 28.6055 69.264 28.4206 69.6046C27.4028 71.4798 25.9633 72.7901 24.127 73.7888C23.3234 74.2258 22.8732 74.2125 22.0389 74.5039C23.9706 74.6784 27.8264 73.6566 29.2482 72.1249C29.7834 71.5483 30.058 70.9453 30.3563 70.0598C31.1325 71.3748 33.6913 72.2815 35.7441 71.4715C33.7826 71.4107 32.7537 70.8223 31.9153 69.6163C30.6353 67.7751 30.5148 65.311 31.8766 63.2447C32.4273 62.409 32.4751 62.3993 33.3546 61.8912C34.8293 61.0392 35.9404 60.9336 37.9345 60.987L39.3626 61.2456C40.7972 61.3996 41.7196 61.6853 43.2803 61.3967C47.4233 60.6306 46.3564 57.4052 46.3776 56.2867C46.3912 55.5684 47.0529 55.6299 47.3973 55.144C47.8469 54.5097 47.3155 54.0632 47.132 53.6099C47.4181 53.4137 47.8836 53.0365 47.9449 52.5841C48.04 51.883 47.5064 51.9004 47.4903 51.1542C48.5035 50.2283 50.2823 49.1331 48.7283 47.206C48.1552 46.4953 47.7023 46.1522 47.1979 45.5409C46.6921 44.9278 46.3289 44.2626 46.3332 43.2067C46.338 41.9737 46.7778 39.516 46.8486 37.3396C47.019 32.1004 45.8729 26.2396 42.3042 22.8055C37.4415 18.126 29.2347 16.6575 22.4552 18.3657C15.9725 19.9991 10.952 23.5849 8.2689 29.7542C7.0054 32.6594 6.47896 37.2251 7.22051 40.7298L8.49627 40.62C8.57511 40.2945 8.29632 38.5422 8.2835 37.9738C8.14112 31.6579 10.0057 27.2355 14.9908 23.2475C20.0237 19.2213 28.3772 18.0236 34.5545 19.919C41.4684 22.0403 44.7249 26.5098 45.3435 33.6349C45.5146 35.605 45.5699 37.3633 45.3935 39.3802C45.1512 42.1511 44.1685 44.2914 46.4012 46.6819C48.5676 49.0017 48.3515 48.5374 46.6672 50.0975C45.8613 50.8441 46.1613 51.4595 46.4483 52.4112C45.8625 52.9989 43.5482 53.5868 45.8951 54.4991C45.3745 55.1919 44.8264 55.431 45.0545 56.7547C45.7539 60.8143 42.3817 60.3003 39.0934 59.8166Z" fill="#06CAF9"/>
<path fill-rule="evenodd" clip-rule="evenodd" d="M39.3626 61.2456L37.9345 60.987C38.3594 64.8832 39.1549 68.5567 36.8979 71.5914C34.8811 74.3031 32.2418 72.1194 29.3527 73.3004C28.9626 73.4598 28.6895 73.6404 28.3605 73.8683L27.4865 74.5753C28.1602 74.538 28.9871 73.8438 30.4976 73.8528C33.8075 73.8727 34.7006 75.7615 37.9209 73.0403C38.1072 72.8828 38.2687 72.8236 38.448 72.6505C38.6129 72.4913 38.6914 72.3442 38.8876 72.1096C39.4662 72.5917 39.6576 73.4647 41.3772 74.2624C42.6314 74.8442 43.8566 75.0687 45.3738 74.9431C48.4208 74.6909 50.9145 73.9787 54.0646 74.2827L53.4924 73.9282C53.2866 73.848 53.0845 73.7848 52.8831 73.7192C51.4674 73.2591 49.877 73.1589 48.3838 73.1509C44.9794 73.1327 40.2499 74.7105 40.2171 68.2948C40.212 67.3018 40.3834 66.9379 41.3771 66.1291C43.3755 64.5027 46.9787 64.5459 49.4588 64.1302C50.3244 63.9852 51.2829 63.7451 51.9656 63.325C52.3782 63.0711 52.5939 62.9456 52.9055 62.6121C54.7007 60.6915 52.9456 57.7747 53.992 55.5401C54.2581 54.9718 55.4495 55.0516 55.153 53.547C54.9815 52.6768 54.1956 52.2875 53.1664 52.1126C53.6338 51.9334 54.0091 51.9146 54.4889 51.6288C55.3523 51.1148 55.943 49.9762 55.5039 48.9639C55.198 48.2583 54.9609 48.521 54.4786 48.0792C54.218 46.6241 55.6453 46.9806 56.7989 46.8508C59.6633 46.5285 59.7916 44.9874 58.7066 42.9379C58.2756 42.1237 56.3779 39.0692 55.9428 38.6063L54.3944 36.6076C53.1788 34.8647 54.9596 33.7364 54.6573 30.6589C54.2823 26.8409 52.8172 22.8368 51.0448 20.0315C50.471 19.1233 49.8976 18.2593 49.2204 17.486C48.1082 16.2161 46.9445 14.9134 45.6181 13.8756C45.4402 13.7364 45.2992 13.645 45.0938 13.4766C41.9787 10.9236 37.8142 9.20027 33.8067 8.545C28.5574 7.6867 23.2606 8.44279 18.5903 10.6028C17.0526 11.314 15.4605 12.3084 14.1269 13.2777L13.1001 14.0792C12.8324 14.3214 12.8637 14.2928 12.5923 14.4893C12.2684 14.7236 12.4135 14.6828 12.1583 14.9615L8.80463 18.7252C8.30981 19.3857 6.37933 22.4971 6.26965 23.3275C6.55821 23.4561 7.18516 23.7187 7.44855 23.768C7.59397 23.6385 8.28797 22.1202 8.50344 21.7539C8.94142 21.0093 9.26722 20.4708 9.72928 19.7982C10.1589 19.1728 10.6238 18.5287 11.0967 17.9884C11.3981 17.6442 11.4977 17.4701 11.8348 17.174C12.673 16.4374 13.389 15.5472 14.3238 14.8379C16.1513 13.451 18.0936 12.1464 20.3996 11.3057C25.8139 9.33195 31.1126 8.79708 36.8424 10.6578C38.5866 11.2241 39.8031 11.859 41.2999 12.6014C42.4425 13.1682 43.6245 13.9848 44.572 14.8146L48.1874 18.4003C50.1763 20.6776 51.6858 23.9044 52.5137 26.7856C52.9251 28.2176 53.4371 30.6885 53.2756 32.199C52.9771 34.9923 51.5362 35.3158 53.8034 38.0749C54.0758 38.4063 54.246 38.6188 54.5304 38.9911C55.6487 40.4553 56.1026 41.1304 57.0606 42.8253C57.3632 43.3607 58.0975 44.4365 57.9326 45.101C57.1378 45.892 54.7731 45.202 53.7654 46.1256C53.275 46.575 52.9828 47.1656 53.0961 48.0703C53.2289 49.1291 53.3949 49.2351 54.2735 49.5032C54.1787 50.7684 53.0264 50.7128 52.0288 51.0059C49.399 51.7786 48.4591 52.7183 51.7081 53.2323C52.228 53.3145 53.6344 53.3139 53.8238 53.8551C53.3674 54.5577 53.054 53.0572 52.3096 56.5381C51.9941 58.0136 52.9912 60.7322 51.7759 61.7807C50.0302 63.2868 46.3335 63.0544 44.0896 63.5351C41.8683 64.0111 41.1767 64.3362 39.7334 65.5228C39.8301 64.4151 39.5289 62.392 39.3626 61.2456Z" fill="white"/>
<path fill-rule="evenodd" clip-rule="evenodd" d="M26.5252 39.1033C26.5102 39.1263 26.4949 39.1366 26.4892 39.1772C26.4804 39.241 26.3037 39.4698 26.254 40.1352L28.249 41.9781C28.4383 42.1674 28.435 42.2673 28.6502 42.4829C28.9206 42.7537 28.9292 42.7405 29.137 43.0064L32.4605 47.4147C34.4255 50.488 37.2117 56.0766 37.6398 59.6334C38.2396 59.6592 38.4306 59.7746 39.0934 59.8165C38.8452 57.9743 37.8916 55.0958 37.1928 53.4516L35.9085 50.5635C35.5837 49.4805 35.3057 48.2549 35.1734 47.1233C34.7322 43.3474 35.36 39.824 36.479 36.2372C36.8189 35.148 37.6117 33.5566 37.6861 33.2905C40.86 33.3617 40.9173 29.6072 40.9827 27.4499C40.4933 27.4927 39.0754 28.2854 38.6927 28.5641C35.2112 31.1002 37.2252 32.3967 36.9048 33.0604C36.816 33.2444 36.6959 33.3364 36.5798 33.5525L35.6611 35.368C34.4848 37.7541 33.7509 41.0302 33.6764 43.7504C33.6609 44.3155 33.6632 44.8839 33.6831 45.4488L33.7085 47.0397C33.501 46.41 33.335 46.429 32.993 45.9135C32.3716 44.9769 31.9888 44.6031 31.3516 43.8172L29.593 41.8309C29.3917 41.6416 29.2593 41.5832 29.088 41.424C28.3775 40.7634 27.3405 39.5853 26.5252 39.1033Z" fill="white"/>
<path fill-rule="evenodd" clip-rule="evenodd" d="M25.0604 39.1259L25.2619 38.0673L24.1117 37.2666C23.2123 36.7254 22.6571 36.2731 21.6368 35.717C20.9051 35.3184 21.3261 35.4405 20.8954 34.4703C20.5022 33.585 19.635 33.0743 18.4026 32.9289C16.8622 32.7472 15.9971 33.1757 14.6724 33.2448C14.9883 33.9875 16.07 34.9971 16.7018 35.6009C17.3829 36.2521 18.7794 36.9082 19.9314 36.5735C20.9605 36.2745 20.4117 35.6284 22.6135 37.2061C23.1479 37.589 24.7968 38.6837 25.0604 39.1259Z" fill="white"/>
<path fill-rule="evenodd" clip-rule="evenodd" d="M33.8944 38.3052C35.8858 35.9739 32.4837 33.4016 30.4346 32.6716C30.1443 33.651 30.2979 36.9641 31.9219 37.9431C32.5816 38.3409 33.0617 38.3333 33.8944 38.3052Z" fill="white"/>
<path fill-rule="evenodd" clip-rule="evenodd" d="M41.282 35.535C40.0193 35.8068 38.6436 36.1849 37.6379 36.9213C37.3311 37.1459 37.2019 37.1202 36.9686 37.4462C36.2951 38.3872 36.0988 39.8458 36.6379 40.2657C37.2245 40.7226 38.4985 40.5427 39.411 39.9274C39.7354 39.7085 39.77 39.5448 39.9896 39.2245C40.7355 38.1365 40.9496 37.0108 41.282 35.535Z" fill="white"/>
<path fill-rule="evenodd" clip-rule="evenodd" d="M22.8184 29.6789C22.5707 30.8313 21.1806 34.0022 22.9092 35.3876C23.2109 35.6293 24.2088 36.2338 24.6651 35.9667C24.914 35.8209 25.4781 34.9215 25.5548 34.3929C25.831 32.4885 23.5769 30.0629 22.8184 29.6789Z" fill="white"/>
<path fill-rule="evenodd" clip-rule="evenodd" d="M63.4493 52.5916C63.4493 54.8391 62.1764 57.4402 60.1784 58.4478C59.9562 58.5598 59.406 58.786 59.254 58.8906C58.3913 59.4842 59.4399 60.2765 61.3932 58.744C65.1486 55.7977 65.1151 50.0646 62.2354 47.3353C61.014 46.1777 60.8041 46.9141 60.8798 47.2179C60.9995 47.6984 63.4493 48.7952 63.4493 52.5916Z" fill="white"/>
<path fill-rule="evenodd" clip-rule="evenodd" d="M26.6546 47.0238L28.8249 49.3601C29.9696 50.1317 31.1736 50.2727 32.2957 49.3874C32.9081 48.9044 32.3458 47.3383 30.7441 46.8314C29.7583 46.5194 27.6519 46.6967 26.6546 47.0238Z" fill="white"/>
<path fill-rule="evenodd" clip-rule="evenodd" d="M26.9092 30.5622C27.8664 29.5538 28.2554 28.6702 27.4332 27.2568C27.0343 26.5711 25.6793 25.0329 25.0581 24.8133C24.7076 25.3736 23.4609 30.3814 26.9092 30.5622Z" fill="#06CAF9"/>
<path fill-rule="evenodd" clip-rule="evenodd" d="M28.4617 20.1278C28.1 20.4166 26.4276 23.5479 27.7108 25.2662C27.9083 25.5307 28.6124 26.2332 29.1385 26.0113C29.4956 25.8606 30.0987 25.2035 30.2493 24.8206C30.8648 23.256 29.3683 21.0242 28.4617 20.1278Z" fill="#06CAF9"/>
<path fill-rule="evenodd" clip-rule="evenodd" d="M14.8199 48.5304C15.4534 49.1467 18.2583 50.6494 19.9079 49.6288C20.1815 49.4595 20.8875 48.757 20.8978 48.3452C20.9098 47.8684 19.8484 46.5765 17.8625 46.9866C16.9139 47.1824 15.3224 47.9661 14.8199 48.5304Z" fill="#06CAF9"/>
<path fill-rule="evenodd" clip-rule="evenodd" d="M10.2351 44.9205C10.5663 45.4117 12.5543 46.2242 13.3586 46.3607C15.1852 46.6706 16.352 45.451 16.3487 44.7321C16.3472 44.397 15.347 42.9928 13.3608 43.3918C12.4342 43.578 10.8495 44.4305 10.2351 44.9205Z" fill="#06CAF9"/>
<path fill-rule="evenodd" clip-rule="evenodd" d="M6.33005 48.9132C7.35466 49.3885 8.09859 50.0427 9.52205 50.2839C11.5347 50.6251 13.7223 48.7033 11.3653 47.4915C9.59692 46.5823 6.5524 48.4502 6.33005 48.9132Z" fill="#06CAF9"/>
<path fill-rule="evenodd" clip-rule="evenodd" d="M20.5878 43.5187C20.9983 42.6883 21.7497 41.7057 20.5379 40.1442C20.1619 39.6596 18.6041 38.2323 17.959 38.0828C17.6304 38.759 17.6537 41.1615 17.9408 41.8615C18.4046 42.992 19.0411 43.4963 20.5878 43.5187Z" fill="#06CAF9"/>
<path fill-rule="evenodd" clip-rule="evenodd" d="M18.076 27.054C18.0393 28.6535 17.6099 31.8905 20.3552 32.1592C20.8719 32.2099 20.9502 32.2339 21.1824 31.822C22.6232 29.2679 18.5364 27.0572 18.076 27.054Z" fill="white"/>
<path fill-rule="evenodd" clip-rule="evenodd" d="M59.4794 47.9675C59.4756 47.9694 58.886 48.0876 59.3762 48.6815C59.7948 49.1886 60.2913 49.3749 60.7414 50.4078C61.8507 52.9538 60.9525 55.8601 58.2293 57.1722C57.4105 57.5667 57.8203 58.1998 58.4523 58.0425C58.8784 57.9364 59.5 57.5243 59.7738 57.3355C61.8342 55.9143 62.742 52.3918 61.4992 49.8678C61.2046 49.2694 60.1222 47.6607 59.4794 47.9675Z" fill="white"/>
<path fill-rule="evenodd" clip-rule="evenodd" d="M57.692 49.5224C57.4047 49.9402 57.4058 50.0329 57.8356 50.3803C58.7309 51.1039 59.2297 52.1425 58.8387 53.358C58.7413 53.6607 58.4885 54.109 58.3781 54.2599C57.7833 55.0726 56.9285 55.1019 56.7007 55.4257C56.4351 55.8035 56.8098 56.1376 57.1933 56.0842C57.9489 55.9791 58.6037 55.3186 58.9434 54.9843C60.925 53.0334 59.2857 49.2705 57.692 49.5224Z" fill="white"/>
</svg>
