<svg width="50" height="50" viewBox="0 0 50 50" fill="none" xmlns="http://www.w3.org/2000/svg">
<path d="M38.3432 8.65723C34.3432 8.77986 34.3443 14.5346 38.3432 14.6561C42.3432 14.5335 42.3421 8.7788 38.3432 8.65723Z" fill="#EF5488"/>
<path d="M25.0001 12.1299C17.9107 12.1299 12.1639 17.8919 12.1639 24.9998C12.8402 42.0718 37.1621 42.0671 37.8358 24.9998C37.8363 17.8919 32.089 12.1299 25.0001 12.1299ZM25.0001 33.354C20.3986 33.354 16.6681 29.6135 16.6681 24.9998C17.107 13.9183 32.8953 13.9209 33.3327 24.9998C33.3322 29.614 29.6017 33.354 25.0001 33.354Z" fill="#EF5488"/>
<path d="M49.8462 14.6937C49.661 5.92161 44.08 0.337435 35.3058 0.153752C33.199 -0.0494045 16.8023 -0.0530887 14.6939 0.153752C5.92181 0.339014 0.337633 5.92003 0.15395 14.6942C-0.0492062 16.7979 -0.0534166 33.1998 0.15395 35.3061C0.317633 44.0498 5.94917 49.6829 14.6939 49.8461C16.8007 50.0513 33.1974 50.0513 35.3058 49.8461C37.9663 49.7245 39.7837 49.3018 41.3737 48.684C46.9457 46.4582 49.6684 41.5072 49.8462 35.3056C50.0494 33.1988 50.0531 16.8021 49.8462 14.6937ZM35.1006 45.3466C33.0274 45.5445 16.9738 45.5477 14.8991 45.3466C12.4623 45.2356 11.1386 44.8282 10.2576 44.4861C2.65288 40.9587 5.01076 33.8256 4.65234 24.0346C4.66024 21.7605 4.6476 17.1736 4.65287 14.8994C4.95655 8.11949 8.14969 4.98056 14.8991 4.6532C16.9749 4.4553 33.0243 4.45214 35.1006 4.6532C41.8826 4.95688 45.0184 8.15002 45.3468 14.8989C45.481 16.5194 45.5784 25.3657 45.3468 29.8425C45.5968 38.2509 45.2136 44.8535 35.1006 45.3466Z" fill="#EF5488"/>
</svg>
