<svg width="50" height="50" viewBox="0 0 50 50" fill="none" xmlns="http://www.w3.org/2000/svg">
<g clip-path="url(#clip0_29_96)">
<path d="M41.25 0H8.75C3.91751 0 0 3.91751 0 8.75V41.25C0 46.0825 3.91751 50 8.75 50H41.25C46.0825 50 50 46.0825 50 41.25V8.75C50 3.91751 46.0825 0 41.25 0Z" fill="#4489C8"/>
<path d="M7.51565 15.4454H13.5157C13.6411 15.4452 13.7636 15.4833 13.8669 15.5544C13.9702 15.6256 14.0493 15.7266 14.0938 15.8439C14.7578 17.5548 17.5157 24.2501 20.0391 24.797C21.9141 24.797 21.25 15.8908 18.8672 15.8908C18.2422 15.8908 19.9766 14.7814 20.0938 14.7345C22.3081 14.1276 24.645 14.1276 26.8594 14.7345C28.0547 15.2345 28.2578 16.6329 28.2891 17.8204C28.3203 19.0079 26.961 24.0704 28.75 24.6173C31.0938 25.3361 34.1094 17.9845 34.8125 16.1798C34.8582 16.064 34.9379 15.9647 35.0411 15.895C35.1443 15.8253 35.2661 15.7884 35.3907 15.7892H42.0703C42.1736 15.7889 42.2753 15.8141 42.3663 15.8627C42.4574 15.9113 42.5351 15.9816 42.5923 16.0675C42.6496 16.1534 42.6847 16.2521 42.6945 16.3549C42.7043 16.4576 42.6885 16.5612 42.6485 16.6564C41.2725 19.7952 39.6229 22.8069 37.7188 25.6564C37.5569 25.8915 37.4809 26.1753 37.5037 26.4598C37.5265 26.7444 37.6466 27.0125 37.8438 27.2189C39.8438 29.3595 45.3125 35.422 42.1875 35.422H35.4453C35.2711 35.4224 35.0987 35.3857 34.9398 35.3143C34.7808 35.2429 34.6389 35.1385 34.5235 35.0079C33.4766 33.8517 30.4297 30.6329 29.0547 30.8908C27.9141 31.1017 27.8047 33.0392 27.8594 34.3048C27.8766 34.6314 27.7652 34.9516 27.5491 35.197C27.3329 35.4424 27.0293 35.5933 26.7032 35.6173C25.5078 35.6876 23.875 35.7189 23.7266 35.7111C18.961 35.4064 16.1407 32.2267 13.4453 28.6798C10.622 24.9195 8.41961 20.7309 6.9219 16.2736C6.89129 16.1793 6.88327 16.0791 6.89849 15.9811C6.91371 15.8831 6.95174 15.7901 7.00952 15.7095C7.0673 15.6289 7.14321 15.563 7.23112 15.5171C7.31904 15.4713 7.4165 15.4467 7.51565 15.4454Z" fill="white"/>
</g>
<defs>
<clipPath id="clip0_29_96">
<rect width="50" height="50" fill="white"/>
</clipPath>
</defs>
</svg>
