<svg width="40" height="40" viewBox="0 0 40 40" fill="none" xmlns="http://www.w3.org/2000/svg">
<g clip-path="url(#clip0_11_7)">
<path d="M34.171 5.81285C30.4108 2.06658 25.4108 0.0023162 20.0837 3.05176e-05C9.10627 3.05176e-05 0.172875 8.89128 0.168481 19.8199C0.167201 23.3133 1.08401 26.7233 2.82661 29.7292L0.00128174 40L10.5586 37.244C13.4673 38.8233 16.7423 39.6555 20.0751 39.6569H20.0836H20.0837C31.0593 39.6569 39.994 30.764 39.9987 19.836C40.0005 14.5394 37.9308 9.55938 34.171 5.81285ZM20.0837 36.3092H20.0772C17.1065 36.3076 14.1934 35.5136 11.6524 34.0125L11.0477 33.6556L4.78278 35.2909L6.45542 29.2118L6.06144 28.5885C4.40437 25.9653 3.52958 22.9339 3.53082 19.8212C3.53446 10.7377 10.9596 3.34781 20.0899 3.34781C24.5114 3.34964 28.667 5.06547 31.7923 8.17925C34.9175 11.293 36.6374 15.4323 36.6361 19.8345C36.6322 28.9183 29.2068 36.3092 20.0837 36.3092Z" fill="#E0E0E0"/>
<path d="M0.915497 38.8604L3.61177 29.0587C1.94834 26.1901 1.07358 22.9356 1.07463 19.6024C1.07899 9.17324 9.60439 0.688385 20.0794 0.688385C25.1635 0.690671 29.9352 2.66054 33.5228 6.23577C37.1113 9.81098 39.0863 14.5632 39.0842 19.6172C39.0799 30.0467 30.5539 38.5323 20.0802 38.5323C20.0807 38.5323 20.0794 38.5323 20.0802 38.5323H20.0717C16.8912 38.5313 13.766 37.7364 10.9903 36.2303L0.915497 38.8604Z" fill="url(#paint0_linear_11_7)"/>
<path fill-rule="evenodd" clip-rule="evenodd" d="M15.1624 11.4054C14.794 10.5898 14.4061 10.5735 14.0555 10.5592C13.7688 10.547 13.4406 10.5477 13.1129 10.5477C12.7849 10.5477 12.252 10.6704 11.8013 11.1605C11.3503 11.6505 10.0794 12.8352 10.0794 15.2446C10.0794 17.6543 11.8423 19.9826 12.088 20.3096C12.334 20.6361 15.4909 25.7386 20.4907 27.7016C24.6459 29.3329 25.4914 29.0084 26.3934 28.9268C27.2953 28.8452 29.3036 27.7424 29.7135 26.5988C30.1235 25.4554 30.1235 24.4753 30.0005 24.2705C29.8775 24.0664 29.5495 23.9439 29.0576 23.699C28.5656 23.4542 26.1474 22.2692 25.6964 22.106C25.2455 21.9427 24.9175 21.8611 24.5895 22.3514C24.2616 22.8412 23.3194 23.9439 23.0324 24.2705C22.7455 24.5977 22.4585 24.6386 21.9665 24.3937C21.4746 24.148 19.8903 23.6314 18.0109 21.9631C16.5486 20.6651 15.5614 19.0621 15.2744 18.5718C14.9874 18.082 15.2436 17.8167 15.4904 17.5726C15.7113 17.3532 15.9824 17.0009 16.2283 16.7149C16.4738 16.4289 16.5558 16.2249 16.7198 15.8983C16.8838 15.5713 16.8018 15.2853 16.6788 15.0404C16.5558 14.7956 15.5998 12.3737 15.1624 11.4054Z" fill="white"/>
<path d="M34.0084 5.74984C30.2913 2.04657 25.3487 0.00604148 20.0828 0.00372314C9.23133 0.00372314 0.400491 8.7929 0.396129 19.5961C0.39485 23.0494 1.30113 26.4202 3.02372 29.3916L0.230865 39.5445L10.667 36.8201C13.5423 38.3812 16.7797 39.204 20.0743 39.2052H20.0827H20.0828C30.9324 39.2052 39.7645 30.4145 39.7691 19.6119C39.7709 14.3762 37.725 9.45336 34.0084 5.74984ZM20.0828 35.8961H20.0764C17.1398 35.8946 14.26 35.1096 11.7482 33.6257L11.1504 33.2729L4.95746 34.8895L6.61089 28.8801L6.22142 28.2641C4.58338 25.671 3.71862 22.6743 3.7199 19.5974C3.72348 10.6181 11.0633 3.31313 20.0889 3.31313C24.4596 3.31493 28.5675 5.01107 31.657 8.0891C34.7463 11.1671 36.4464 15.2589 36.4451 19.6107C36.4412 28.5901 29.1011 35.8961 20.0828 35.8961Z" fill="white"/>
</g>
<defs>
<linearGradient id="paint0_linear_11_7" x1="19.9999" y1="38.8604" x2="19.9999" y2="0.688449" gradientUnits="userSpaceOnUse">
<stop stop-color="#20B038"/>
<stop offset="1" stop-color="#60D66A"/>
</linearGradient>
<clipPath id="clip0_11_7">
<rect width="40" height="40" fill="white"/>
</clipPath>
</defs>
</svg>
