<svg width="67" height="93" viewBox="0 0 67 93" fill="none" xmlns="http://www.w3.org/2000/svg">
<path fill-rule="evenodd" clip-rule="evenodd" d="M39.0934 59.8164C38.4306 59.7744 38.2395 59.659 37.6398 59.6332C34.8855 59.4546 33.4556 60.1233 31.4828 61.4969C30.8431 61.9423 30.8076 62.6999 30.3625 63.0983C30.355 61.6324 29.5263 58.6847 29.0852 57.4132C28.4126 55.4746 27.3792 53.7045 27.007 52.4937C26.5034 50.8551 25.9413 48.4959 25.8917 46.6369C25.8606 45.4762 25.8143 44.3686 25.87 43.2053C25.924 42.0802 26.1536 41.143 26.254 40.135C26.3037 39.4696 26.4804 39.2408 26.4892 39.177C26.4949 39.1364 26.5101 39.1261 26.5252 39.1031C26.2395 38.5274 28.084 33.6493 28.3812 32.9194C29.0423 31.2957 30.4373 28.8638 31.4197 27.706C32.4428 27.6171 33.2702 27.7236 34.0846 26.2257C34.4977 25.4658 34.9516 23.9863 34.9217 22.9822C33.6946 23.1472 31.6355 24.1142 30.913 25.2943C30.1736 26.5017 31.0803 26.8604 30.5099 27.6007C28.2764 30.499 26.7193 33.2885 25.6388 36.8322C25.5099 37.2549 25.4459 37.7365 25.2619 38.0671L25.0605 39.1258C24.6953 40.7841 24.5029 42.4729 24.4781 44.2885C24.4472 46.5488 24.8372 48.8738 24.8323 49.2585C24.8302 49.4241 24.8171 49.4418 24.7816 49.5055C22.3516 46.6057 21.105 45.4085 18.0642 43.3736C17.1362 42.7525 15.7208 42.0386 15.3207 41.7615C15.3362 41.0414 15.4335 40.7289 15.0847 40.0662C14.4282 38.8194 12.4005 38.0554 11.0808 37.7397C11.0315 38.618 11.4639 40.0748 11.7845 40.7659C12.1759 41.6091 12.8437 42.442 14.0842 42.432C15.066 42.4242 14.8865 42.2861 15.6579 42.75C19.3382 44.9633 22.3295 47.9362 24.5945 51.5094L26.0517 53.9439L24.1898 52.7197C23.5639 52.3396 22.8281 51.9855 22.1117 51.6798C19.8703 50.7231 16.5266 50.3048 14.0061 50.7912C12.3142 51.1178 12.4121 50.5244 11.3926 50.9396C10.2963 51.386 8.75815 53.0309 8.38295 54.1095C9.56879 54.2672 11.0969 54.392 12.193 53.9878C13.4023 53.5418 13.7758 53.0285 13.998 51.7076C19.4491 51.5119 24.9111 53.4845 27.7343 57.8156C28.0277 58.2658 28.2738 59.3499 28.4243 59.9394L29.1044 63.4424C29.1793 63.8886 29.1247 64.3357 29.1745 64.8033C29.2603 65.6091 29.1789 67.9985 28.9109 68.6334C28.7598 68.9913 28.6055 69.2638 28.4206 69.6044C27.4028 71.4796 25.9633 72.7899 24.1269 73.7886C23.3234 74.2256 22.8732 74.2123 22.0389 74.5037C23.9705 74.6782 27.8264 73.6564 29.2482 72.1247C29.7834 71.5481 30.058 70.9451 30.3562 70.0596C31.1325 71.3746 33.6912 72.2812 35.7441 71.4712C33.7826 71.4105 32.7537 70.822 31.9153 69.6161C30.6353 67.7749 30.5148 65.3108 31.8766 63.2445C32.4273 62.4088 32.475 62.3991 33.3546 61.891C34.8293 61.039 35.9403 60.9334 37.9345 60.9868L39.3626 61.2454C40.7972 61.3994 41.7196 61.6851 43.2803 61.3965C47.4233 60.6304 46.3564 57.405 46.3776 56.2865C46.3912 55.5682 47.0529 55.6296 47.3973 55.1437C47.8469 54.5095 47.3155 54.0629 47.132 53.6097C47.4181 53.4135 47.8836 53.0362 47.9449 52.5838C48.04 51.8828 47.5064 51.9002 47.4903 51.154C48.5035 50.2281 50.2823 49.1329 48.7283 47.2058C48.1552 46.495 47.7023 46.152 47.1979 45.5406C46.6921 44.9275 46.3289 44.2624 46.3332 43.2065C46.338 41.9735 46.7778 39.5158 46.8486 37.3394C47.019 32.1002 45.8729 26.2394 42.3042 22.8052C37.4415 18.1258 29.2347 16.6573 22.4551 18.3655C15.9725 19.9989 10.952 23.5847 8.26888 29.754C7.00538 32.6592 6.47895 37.2249 7.22049 40.7295L8.49626 40.6198C8.57509 40.2943 8.29631 38.542 8.28348 37.9735C8.14111 31.6577 10.0057 27.2353 14.9908 23.2472C20.0237 19.2211 28.3772 18.0234 34.5545 19.9188C41.4684 22.0401 44.7249 26.5095 45.3435 33.6346C45.5146 35.6048 45.5698 37.363 45.3934 39.38C45.1511 42.1509 44.1685 44.2911 46.4012 46.6817C48.5676 49.0015 48.3515 48.5372 46.6672 50.0973C45.8613 50.8439 46.1613 51.4593 46.4483 52.411C45.8625 52.9987 43.5482 53.5865 45.895 54.4989C45.3745 55.1917 44.8264 55.4308 45.0544 56.7545C45.7539 60.8141 42.3816 60.3001 39.0934 59.8164Z" fill="#06CAF9"/>
<path fill-rule="evenodd" clip-rule="evenodd" d="M39.3626 61.2456L37.9345 60.9871C38.3594 64.8833 39.1549 68.5568 36.8979 71.5914C34.8811 74.3032 32.2418 72.1194 29.3527 73.3004C28.9626 73.4598 28.6895 73.6404 28.3605 73.8683L27.4865 74.5753C28.1602 74.5381 28.9871 73.8438 30.4976 73.8528C33.8075 73.8727 34.7006 75.7616 37.9209 73.0403C38.1073 72.8829 38.2687 72.8236 38.448 72.6506C38.6129 72.4914 38.6914 72.3442 38.8876 72.1097C39.4662 72.5917 39.6576 73.4648 41.3772 74.2624C42.6314 74.8442 43.8566 75.0687 45.3738 74.9431C48.4208 74.691 50.9145 73.9787 54.0646 74.2828L53.4924 73.9283C53.2866 73.848 53.0845 73.7849 52.8831 73.7193C51.4674 73.2591 49.877 73.1589 48.3838 73.151C44.9794 73.1327 40.2499 74.7105 40.2171 68.2948C40.212 67.3018 40.3834 66.9379 41.3771 66.1292C43.3755 64.5027 46.9787 64.5459 49.4588 64.1302C50.3244 63.9852 51.2829 63.7451 51.9656 63.3251C52.3782 63.0711 52.5939 62.9456 52.9055 62.6122C54.7007 60.6915 52.9456 57.7747 53.992 55.5401C54.2581 54.9718 55.4495 55.0516 55.1531 53.547C54.9815 52.6768 54.1956 52.2875 53.1664 52.1126C53.6338 51.9335 54.0092 51.9146 54.4889 51.6289C55.3523 51.1149 55.943 49.9763 55.5039 48.9639C55.198 48.2584 54.961 48.521 54.4786 48.0793C54.218 46.6241 55.6453 46.9806 56.7989 46.8508C59.6633 46.5285 59.7916 44.9874 58.7066 42.9379C58.2756 42.1237 56.3779 39.0692 55.9428 38.6063L54.3944 36.6077C53.1788 34.8648 54.9596 33.7365 54.6573 30.659C54.2823 26.8409 52.8172 22.8368 51.0448 20.0315C50.471 19.1233 49.8976 18.2594 49.2204 17.486C48.1083 16.2161 46.9445 14.9134 45.6181 13.8757C45.4402 13.7365 45.2992 13.645 45.0938 13.4767C41.9787 10.9237 37.8142 9.2003 33.8067 8.54503C28.5575 7.68673 23.2606 8.44282 18.5903 10.6028C17.0526 11.314 15.4605 12.3084 14.1269 13.2777L13.1001 14.0792C12.8324 14.3214 12.8637 14.2929 12.5923 14.4893C12.2684 14.7237 12.4135 14.6828 12.1583 14.9615L8.80463 18.7252C8.30981 19.3857 6.37934 22.4971 6.26966 23.3275C6.55821 23.4561 7.18516 23.7187 7.44855 23.768C7.59398 23.6385 8.28798 22.1203 8.50344 21.754C8.94143 21.0094 9.26722 20.4708 9.72929 19.7982C10.1589 19.1728 10.6238 18.5287 11.0967 17.9884C11.3981 17.6442 11.4977 17.4702 11.8348 17.174C12.673 16.4375 13.3891 15.5473 14.3238 14.838C16.1513 13.4511 18.0937 12.1464 20.3996 11.3057C25.8139 9.33198 31.1126 8.79711 36.8424 10.6578C38.5866 11.2241 39.8031 11.859 41.2999 12.6015C42.4425 13.1682 43.6245 13.9849 44.572 14.8146L48.1874 18.4003C50.1763 20.6776 51.6858 23.9045 52.5137 26.7856C52.9251 28.2177 53.4371 30.6885 53.2757 32.1991C52.9771 34.9923 51.5362 35.3158 53.8035 38.0749C54.0758 38.4063 54.246 38.6188 54.5304 38.9912C55.6487 40.4553 56.1026 41.1304 57.0606 42.8253C57.3632 43.3607 58.0975 44.4365 57.9326 45.101C57.1378 45.892 54.7732 45.202 53.7654 46.1256C53.275 46.575 52.9828 47.1656 53.0962 48.0703C53.2289 49.1292 53.3949 49.2352 54.2735 49.5033C54.1787 50.7684 53.0264 50.7128 52.0289 51.0059C49.399 51.7787 48.4591 52.7184 51.7081 53.2323C52.228 53.3145 53.6344 53.3139 53.8238 53.8552C53.3674 54.5578 53.054 53.0573 52.3096 56.5382C51.9941 58.0137 52.9912 60.7322 51.7759 61.7808C50.0302 63.2868 46.3335 63.0544 44.0896 63.5351C41.8683 64.0111 41.1768 64.3362 39.7334 65.5229C39.8301 64.4151 39.5289 62.3921 39.3626 61.2456Z" fill="white"/>
<path fill-rule="evenodd" clip-rule="evenodd" d="M26.5252 39.1031C26.5101 39.1261 26.4949 39.1364 26.4892 39.177C26.4804 39.2408 26.3037 39.4696 26.254 40.135L28.2489 41.9779C28.4383 42.1671 28.435 42.2671 28.6502 42.4827C28.9206 42.7535 28.9292 42.7403 29.137 43.0062L32.4605 47.4145C34.4255 50.4878 37.2117 56.0764 37.6398 59.6331C38.2395 59.6589 38.4306 59.7744 39.0934 59.8162C38.8451 57.9741 37.8916 55.0955 37.1928 53.4514L35.9085 50.5633C35.5837 49.4803 35.3057 48.2547 35.1734 47.1231C34.7322 43.3472 35.3599 39.8238 36.479 36.237C36.8189 35.1478 37.6117 33.5563 37.6861 33.2903C40.8599 33.3615 40.9173 29.607 40.9827 27.4497C40.4933 27.4925 39.0754 28.2851 38.6927 28.5639C35.2112 31.1 37.2252 32.3965 36.9047 33.0602C36.816 33.2441 36.6959 33.3362 36.5798 33.5523L35.661 35.3678C34.4847 37.7539 33.7509 41.03 33.6764 43.7502C33.6608 44.3153 33.6632 44.8837 33.6831 45.4486L33.7085 47.0395C33.501 46.4098 33.335 46.4288 32.993 45.9133C32.3716 44.9767 31.9888 44.6029 31.3516 43.817L29.593 41.8307C29.3917 41.6414 29.2593 41.583 29.088 41.4238C28.3775 40.7632 27.3405 39.5851 26.5252 39.1031Z" fill="white"/>
<path fill-rule="evenodd" clip-rule="evenodd" d="M25.0604 39.1258L25.2619 38.0672L24.1117 37.2665C23.2123 36.7254 22.6571 36.273 21.6368 35.717C20.9051 35.3183 21.3261 35.4404 20.8954 34.4702C20.5022 33.5849 19.635 33.0742 18.4026 32.9288C16.8622 32.7471 15.9971 33.1756 14.6724 33.2448C14.9883 33.9874 16.07 34.9971 16.7018 35.6009C17.3829 36.252 18.7794 36.9081 19.9314 36.5734C20.9605 36.2744 20.4117 35.6284 22.6135 37.2061C23.1479 37.589 24.7968 38.6836 25.0604 39.1258Z" fill="white"/>
<path fill-rule="evenodd" clip-rule="evenodd" d="M33.8944 38.305C35.8858 35.9737 32.4837 33.4014 30.4346 32.6714C30.1443 33.6508 30.2979 36.9639 31.9219 37.9429C32.5816 38.3407 33.0617 38.3332 33.8944 38.305Z" fill="white"/>
<path fill-rule="evenodd" clip-rule="evenodd" d="M41.282 35.5352C40.0193 35.8069 38.6435 36.1851 37.6379 36.9215C37.3311 37.1461 37.2019 37.1204 36.9686 37.4464C36.2951 38.3874 36.0988 39.846 36.6379 40.2659C37.2245 40.7228 38.4985 40.5429 39.411 39.9275C39.7354 39.7087 39.77 39.5449 39.9896 39.2247C40.7355 38.1367 40.9496 37.011 41.282 35.5352Z" fill="white"/>
<path fill-rule="evenodd" clip-rule="evenodd" d="M22.8184 29.6787C22.5707 30.8311 21.1806 34.002 22.9092 35.3874C23.2109 35.6291 24.2088 36.2336 24.6651 35.9665C24.914 35.8207 25.4781 34.9213 25.5548 34.3927C25.831 32.4883 23.5769 30.0627 22.8184 29.6787Z" fill="white"/>
<path fill-rule="evenodd" clip-rule="evenodd" d="M63.4493 52.5914C63.4493 54.839 62.1764 57.4401 60.1784 58.4476C59.9562 58.5597 59.406 58.7859 59.254 58.8905C58.3913 59.4841 59.44 60.2763 61.3932 58.7438C65.1486 55.7976 65.1151 50.0644 62.2354 47.3351C61.014 46.1775 60.8041 46.9139 60.8799 47.2178C60.9995 47.6983 63.4493 48.795 63.4493 52.5914Z" fill="white"/>
<path fill-rule="evenodd" clip-rule="evenodd" d="M26.6546 47.0239L28.8249 49.3602C29.9696 50.1318 31.1736 50.2728 32.2957 49.3876C32.9081 48.9045 32.3458 47.3385 30.7441 46.8315C29.7583 46.5195 27.6519 46.6969 26.6546 47.0239Z" fill="white"/>
<path fill-rule="evenodd" clip-rule="evenodd" d="M26.9092 30.5624C27.8664 29.554 28.2553 28.6704 27.4332 27.257C27.0343 26.5713 25.6793 25.0331 25.0581 24.8135C24.7076 25.3738 23.4609 30.3816 26.9092 30.5624Z" fill="#06CAF9"/>
<path fill-rule="evenodd" clip-rule="evenodd" d="M28.4617 20.1279C28.1 20.4167 26.4276 23.548 27.7108 25.2663C27.9083 25.5308 28.6124 26.2333 29.1385 26.0114C29.4957 25.8606 30.0987 25.2036 30.2493 24.8207C30.8648 23.256 29.3683 21.0243 28.4617 20.1279Z" fill="#06CAF9"/>
<path fill-rule="evenodd" clip-rule="evenodd" d="M14.8199 48.5302C15.4533 49.1466 18.2583 50.6492 19.9079 49.6287C20.1815 49.4594 20.8875 48.7569 20.8978 48.3451C20.9098 47.8682 19.8483 46.5764 17.8625 46.9865C16.9139 47.1823 15.3224 47.966 14.8199 48.5302Z" fill="#06CAF9"/>
<path fill-rule="evenodd" clip-rule="evenodd" d="M10.2351 44.9207C10.5663 45.4119 12.5543 46.2244 13.3586 46.3609C15.1852 46.6708 16.352 45.4512 16.3487 44.7323C16.3472 44.3972 15.347 42.993 13.3607 43.392C12.4341 43.5782 10.8494 44.4307 10.2351 44.9207Z" fill="#06CAF9"/>
<path fill-rule="evenodd" clip-rule="evenodd" d="M6.33004 48.913C7.35465 49.3883 8.09859 50.0425 9.52204 50.2837C11.5347 50.6249 13.7223 48.7031 11.3653 47.4913C9.59691 46.5821 6.55239 48.45 6.33004 48.913Z" fill="#06CAF9"/>
<path fill-rule="evenodd" clip-rule="evenodd" d="M20.5878 43.5189C20.9983 42.6885 21.7497 41.7059 20.5379 40.1444C20.1619 39.6598 18.6041 38.2325 17.959 38.083C17.6304 38.7593 17.6537 41.1617 17.9408 41.8617C18.4046 42.9922 19.0411 43.4965 20.5878 43.5189Z" fill="#06CAF9"/>
<path fill-rule="evenodd" clip-rule="evenodd" d="M18.0759 27.0542C18.0393 28.6537 17.6098 31.8906 20.3551 32.1594C20.8719 32.21 20.9501 32.234 21.1824 31.8221C22.6232 29.268 18.5364 27.0573 18.0759 27.0542Z" fill="white"/>
<path fill-rule="evenodd" clip-rule="evenodd" d="M59.4794 47.9677C59.4756 47.9696 58.886 48.0878 59.3762 48.6817C59.7948 49.1888 60.2913 49.3751 60.7414 50.408C61.8507 52.9539 60.9525 55.8603 58.2293 57.1724C57.4104 57.5669 57.8203 58.2 58.4523 58.0427C58.8784 57.9366 59.5 57.5245 59.7737 57.3357C61.8342 55.9145 62.742 52.392 61.4992 49.8679C61.2046 49.2696 60.1221 47.6609 59.4794 47.9677Z" fill="white"/>
<path fill-rule="evenodd" clip-rule="evenodd" d="M57.692 49.5223C57.4047 49.9401 57.4058 50.0327 57.8356 50.3802C58.7309 51.1038 59.2297 52.1424 58.8386 53.3578C58.7413 53.6605 58.4885 54.1089 58.378 54.2598C57.7833 55.0724 56.9285 55.1017 56.7007 55.4256C56.4351 55.8033 56.8098 56.1375 57.1932 56.0841C57.9488 55.979 58.6037 55.3185 58.9434 54.9842C60.925 53.0333 59.2857 49.2704 57.692 49.5223Z" fill="white"/>
</svg>
