<svg width="35.000000" height="35.000000" viewBox="0 0 35 35" fill="none" xmlns="http://www.w3.org/2000/svg" xmlns:xlink="http://www.w3.org/1999/xlink">
	<desc>
			Created with Pixso.
	</desc>
	<defs/>
	<circle cx="17.500000" cy="17.500000" r="17.500000" fill="#1A9BDA" fill-opacity="1.000000"/>
	<path d="M21.88 21.99Q22.58 20.43 22.58 18.34L22.58 17.45Q22.58 15.37 21.88 13.8Q21.31 12.52 20.34 11.74Q20.12 11.56 19.87 11.41Q19.64 11.26 19.39 11.14Q18.26 10.58 16.86 10.58Q15.6 10.58 14.54 11.05Q14.2 11.21 13.88 11.42Q13.65 11.56 13.44 11.73Q12.45 12.52 11.86 13.82Q11.15 15.4 11.15 17.45L11.15 18.47Q11.17 20.48 11.88 22.01Q12.45 23.22 13.38 23.99Q13.63 24.19 13.9 24.37Q14.19 24.55 14.51 24.7Q15.58 25.19 16.88 25.19Q18.36 25.19 19.52 24.58Q19.71 24.48 19.89 24.37Q20.11 24.23 20.31 24.07Q21.3 23.29 21.88 21.99ZM19.7 13.54Q20.72 14.9 20.72 17.43L20.72 18.48Q20.69 20.95 19.69 22.28Q19.31 22.79 18.8 23.1Q18 23.6 16.88 23.6Q15.89 23.6 15.14 23.18Q14.51 22.83 14.04 22.2Q13.01 20.8 13.01 18.34L13.01 17.3Q13.04 14.9 14.06 13.54Q14.51 12.95 15.11 12.62Q15.87 12.19 16.86 12.19Q17.95 12.19 18.75 12.67Q19.29 13 19.7 13.54Z" fill="#FFFFFF" fill-opacity="1.000000" fill-rule="evenodd"/>
</svg>
