<svg width="35.000000" height="35.000000" viewBox="0 0 35 35" fill="none" xmlns="http://www.w3.org/2000/svg" xmlns:xlink="http://www.w3.org/1999/xlink">
	<desc>
			Created with Pixso.
	</desc>
	<defs/>
	<circle cx="17.500000" cy="17.500000" r="17.500000" fill="#F4C30A" fill-opacity="1.000000"/>
	<path d="M21.81 23.6Q22.88 22.42 23.1 20.48L21.22 20.48Q20.95 22.24 20.11 22.95Q19.28 23.66 17.71 23.66Q16.77 23.66 16.05 23.25Q15.45 22.91 15.01 22.29Q14.04 20.92 14.04 18.61L14.04 17.23Q14.04 14.78 15.06 13.45Q15.48 12.91 16.03 12.59Q16.82 12.12 17.88 12.12Q19.27 12.12 20.08 12.81Q20.12 12.85 20.16 12.89Q20.98 13.65 21.22 15.35L23.1 15.35Q22.91 13.44 21.89 12.24Q21.72 12.03 21.51 11.85Q21.3 11.65 21.07 11.49Q19.8 10.58 17.88 10.58Q16.41 10.58 15.25 11.17Q15.06 11.27 14.87 11.39Q14.55 11.58 14.27 11.82Q13.4 12.56 12.87 13.7Q12.16 15.2 12.16 17.18L12.16 18.55Q12.16 21.5 13.6 23.29Q13.64 23.34 13.68 23.38Q14.3 24.12 15.08 24.56Q16.22 25.19 17.71 25.19Q19.83 25.19 21.18 24.17Q21.32 24.07 21.44 23.96Q21.64 23.79 21.81 23.6Z" fill="#FFFFFF" fill-opacity="1.000000" fill-rule="evenodd"/>
</svg>
